<?xml version="1.0" encoding="utf-8"?>
<!-- Generator: Adobe Illustrator 19.0.0, SVG Export Plug-In . SVG Version: 6.00 Build 0)  -->
<svg version="1.1" id="Camada_1" xmlns="http://www.w3.org/2000/svg" xmlns:xlink="http://www.w3.org/1999/xlink" x="0px" y="0px"
	 viewBox="-160 300 290 194" style="enable-background:new -160 300 290 194;" xml:space="preserve">
<style type="text/css">
	.st0{clip-path:url(#SVGID_2_);}
	.st1{opacity:0.6;fill:#EF7E25;enable-background:new    ;}
	.st2{fill:#FFFFFF;}
</style>
<g>
	<g>
		<defs>
			<rect id="SVGID_1_" x="-160" y="300" width="290" height="194"/>
		</defs>
		<clipPath id="SVGID_2_">
			<use xlink:href="#SVGID_1_"  style="overflow:visible;"/>
		</clipPath>
		<g transform="matrix(1 0 0 1 0 1.192093e-007)" class="st0">
			
				<image style="overflow:visible;enable-background:new    ;" width="1920" height="1080" xlink:href="CF25657B.png"  transform="matrix(0.1809 0 0 0.1809 -217.1779 298.5105)">
			</image>
		</g>
	</g>
</g>
<rect x="-160" y="300" class="st1" width="290" height="194"/>
<g>
	<g>
		<g>
			<path class="st2" d="M-39.7,391.5c0-2.8,1.9-4.7,4.5-4.7s4.4,1.9,4.4,4.7c0,2.7-1.7,4.7-4.5,4.7
				C-37.9,396.2-39.7,394.2-39.7,391.5z"/>
			<g>
				<path class="st2" d="M-39.9,391.5c0,0,0-0.5,0.2-1.3c0.2-0.8,0.5-2,1.6-3.2c0.6-0.6,1.4-1,2.3-1.2c0.2-0.1,0.4-0.1,0.7-0.1
					c0.2,0,0.4,0,0.7,0c0.6,0,1,0.1,1.6,0.3c2.2,0.7,3.7,3.2,3.7,5.4c0.1,1.1-0.1,2.4-0.6,3.6c-0.5,1.2-1.6,2.2-2.7,2.8
					c-1.2,0.5-2.5,0.6-3.4,0.4c-1.3-0.2-2.1-0.9-2.8-1.6c-1.3-1.5-1.2-3-1.3-3.8C-40,391.9-39.9,391.5-39.9,391.5z M-39.5,391.5
					c0,0,0,0.5,0.3,1.1c0.3,0.7,1.2,1.5,2.2,1.6c0.5,0,1.1,0,1.3-0.1c0.7-0.1,1-0.2,1.4-0.3c0.4-0.1,0.7-0.3,1.1-0.7
					s0.6-0.9,0.7-1.6c0.2-1.3-0.3-2.6-1.4-3.2c-0.3-0.1-0.6-0.3-0.8-0.3c-0.1,0-0.4-0.1-0.5-0.1l-0.4-0.1c-0.6,0-1.2,0.1-1.8,0.3
					c-1.1,0.4-1.8,1.5-1.9,2.2C-39.6,391-39.5,391.5-39.5,391.5z"/>
			</g>
		</g>
		<g>
			<path class="st2" d="M-21.3,391.5c0-2.8,1.9-4.7,4.5-4.7s4.4,1.9,4.4,4.7c0,2.7-1.7,4.7-4.5,4.7
				C-19.5,396.2-21.3,394.2-21.3,391.5z"/>
			<g>
				<path class="st2" d="M-21.5,391.5c0,0,0-0.5,0.2-1.3c0.2-0.8,0.5-2,1.6-3.2c0.6-0.6,1.4-1,2.3-1.2c0.2-0.1,0.4-0.1,0.7-0.1
					c0.2,0,0.4,0,0.7,0c0.6,0,1,0.1,1.6,0.3c2.2,0.7,3.7,3.2,3.7,5.4c0.1,1.1-0.1,2.4-0.6,3.6c-0.5,1.2-1.6,2.2-2.7,2.8
					c-1.2,0.5-2.5,0.6-3.4,0.4c-1.3-0.2-2.1-0.9-2.8-1.6c-1.3-1.5-1.2-3-1.3-3.8C-21.6,391.9-21.5,391.5-21.5,391.5z M-21.1,391.5
					c0,0,0,0.5,0.3,1.1c0.3,0.7,1.2,1.5,2.2,1.6c0.5,0,1.1,0,1.3-0.1c0.7-0.1,1-0.2,1.4-0.3c0.4-0.1,0.7-0.3,1.1-0.7
					c0.4-0.4,0.6-0.9,0.7-1.6c0.2-1.3-0.3-2.6-1.4-3.2c-0.3-0.1-0.6-0.3-0.8-0.3c-0.1,0-0.4-0.1-0.5-0.1l-0.4-0.1
					c-0.6,0-1.2,0.1-1.8,0.3c-1.1,0.4-1.8,1.5-1.9,2.2C-21.2,391-21.1,391.5-21.1,391.5z"/>
			</g>
		</g>
		<g>
			<path class="st2" d="M-3,391.5c0-2.8,1.9-4.7,4.5-4.7s4.4,1.9,4.4,4.7c0,2.7-1.7,4.7-4.5,4.7C-1.2,396.2-3,394.2-3,391.5z"/>
			<g>
				<path class="st2" d="M-3.2,391.5c0,0,0-0.5,0.2-1.3c0.2-0.8,0.5-2,1.6-3.2c0.6-0.6,1.4-1,2.3-1.2c0.2-0.1,0.4-0.1,0.7-0.1
					c0.2,0,0.4,0,0.7,0c0.6,0,1,0.1,1.6,0.3c2.2,0.7,3.7,3.2,3.7,5.4c0.1,1.1-0.1,2.4-0.6,3.6c-0.5,1.2-1.6,2.2-2.7,2.8
					c-1.2,0.5-2.5,0.6-3.4,0.4c-1.3-0.2-2.1-0.9-2.8-1.6c-1.3-1.5-1.2-3-1.3-3.8C-3.2,391.9-3.2,391.5-3.2,391.5z M-2.7,391.5
					c0,0,0,0.5,0.3,1.1c0.3,0.7,1.2,1.5,2.2,1.6c0.5,0,1.1,0,1.3-0.1c0.7-0.1,1-0.2,1.4-0.3c0.4-0.1,0.7-0.3,1.1-0.7
					c0.4-0.4,0.6-0.9,0.7-1.6c0.2-1.3-0.3-2.6-1.4-3.2c-0.3-0.1-0.6-0.3-0.8-0.3c-0.1,0-0.4-0.1-0.5-0.1l-0.4-0.1
					c-0.6,0-1.2,0.1-1.8,0.3c-1.1,0.4-1.8,1.5-1.9,2.2C-2.8,391-2.7,391.5-2.7,391.5z"/>
			</g>
		</g>
	</g>
	<g>
		<path class="st2" d="M20.8,357.9c1.4,1.3,2.3,3.3,2.4,5.2c0.1,1.9,0,3.7,0,5.6c0,3.7-0.1,7.5,0.1,11.2l0.6,22.4l0.3,11.2l0.1,5.6
			c0.1,2.1-0.7,4.5-2.2,6.1c-1.4,1.7-3.5,3-5.7,3.3c-1.2,0.2-2.1,0.1-3,0.1h-2.8l-11.2,0.2l-22.4,0.3l-11.2,0.2l-5.6,0.1h-2.8h-1.6
			c-0.4,0-1.2-0.1-1.7-0.2c-2.3-0.4-4.7-1.7-6.3-3.6c-0.8-1-1.3-1.8-1.8-2.5l-1.6-2.3l-6.4-9.2l-12.7-18.3l-1.2-1.8l1.2-1.9
			c5.1-7.8,10-15.6,15.3-23.3l3.9-5.8l1.9-2.9c0.7-1.1,2.1-2.6,3.5-3.4c1.4-0.9,3.1-1.4,4.7-1.5c0.4,0,0.7-0.1,1.2-0.1h0.9h1.7
			l7,0.3c9.3,0.4,18.6,1,27.9,1.5c4.6,0.3,9.3,0.5,13.9,0.7c2.3,0.1,4.6,0.2,7,0.2C16.5,355.3,19.1,356.1,20.8,357.9z M20.3,358.4
			c-1.6-1.6-3.9-2.2-6.2-2c-2.3,0-4.6,0.1-7,0.2c-4.6,0.1-9.3,0.4-13.9,0.7c-9.3,0.5-18.6,1.1-27.9,1.5l-7,0.3c-2.6,0-4,0-5,0.8
			c-0.6,0.4-0.9,0.7-1.4,1.6l-1.9,2.9l-3.8,5.8c-5,7.8-10.3,15.4-15.6,23.1v-3.6l12.1,18.9l6,9.4l1.5,2.4c0.5,0.8,1,1.6,1.4,2.1
			c0.8,1,1.9,1.7,3.2,2c1.3,0.3,3.2,0.1,5.1,0.2l5.6,0.1l11.2,0.2l22.4,0.3l11.2,0.2c1.8,0,4,0.1,5.4,0c1.5-0.2,2.8-0.9,3.9-2
			c1-1.1,1.6-2.5,1.7-4.2l0.1-5.6l0.3-11.2l0.6-22.4c0.1-3.7,0-7.5,0.1-11.2c0-1.9,0-3.8,0-5.6C22.4,361.3,21.6,359.6,20.3,358.4z"
			/>
	</g>
</g>
</svg>
