<?xml version="1.0" encoding="utf-8"?>
<!-- Generator: Adobe Illustrator 19.1.0, SVG Export Plug-In . SVG Version: 6.00 Build 0)  -->
<svg version="1.1" id="Camada_1" xmlns="http://www.w3.org/2000/svg" xmlns:xlink="http://www.w3.org/1999/xlink" x="0px" y="0px"
	 viewBox="0 0 480 270" style="enable-background:new 0 0 480 270;" xml:space="preserve">
<style type="text/css">
	.st0{fill:#D8D8D8;}
	.st1{fill:#A3A3A3;}
</style>
<rect class="st0" width="480" height="270"/>
<g>
	<g>
		<path class="st1" d="M299.8,157.6h-41.8c-1.5,0-2.7-1.2-2.7-2.7c0-1.5,1.2-2.7,2.7-2.7h41.8c1.5,0,2.7,1.2,2.7,2.7
			C302.4,156.4,301.3,157.6,299.8,157.6z"/>
	</g>
	<g>
		<path class="st1" d="M299.8,138.2h-41.8c-1.5,0-2.7-1.2-2.7-2.7c0-1.5,1.2-2.7,2.7-2.7h41.8c1.5,0,2.7,1.2,2.7,2.7
			C302.4,137,301.3,138.2,299.8,138.2z"/>
	</g>
	<g>
		<path class="st1" d="M299.8,118.8h-41.8c-1.5,0-2.7-1.2-2.7-2.7s1.2-2.7,2.7-2.7h41.8c1.5,0,2.7,1.2,2.7,2.7
			S301.3,118.8,299.8,118.8z"/>
	</g>
	<g>
		<path class="st1" d="M240.4,182.5V85.7c0-3.4,1.2-6.2,2.7-6.2c1.5,0,2.7,2.8,2.7,6.2v96.8c0,3.4-1.2,6.2-2.7,6.2
			C241.6,188.7,240.4,185.9,240.4,182.5z"/>
	</g>
	<g>
		<path class="st1" d="M302.2,191.5H183.9c-8.7,0-15.8-7.2-15.8-16v-80c0-8.8,7.1-16,15.8-16h118.2c8.7,0,15.8,7.2,15.8,16l-0.1,80
			C317.9,184.4,310.8,191.5,302.2,191.5z M183.9,84.8c-5.8,0-10.5,4.8-10.5,10.7v80c0,5.9,4.7,10.7,10.5,10.7h118.2
			c5.7,0,10.4-4.8,10.4-10.7l0.1-80c0-5.9-4.7-10.7-10.5-10.7H183.9z"/>
	</g>
</g>
</svg>
