<?xml version="1.0" encoding="utf-8"?>
<!-- Generator: Adobe Illustrator 19.1.0, SVG Export Plug-In . SVG Version: 6.00 Build 0)  -->
<svg version="1.1" id="Camada_1" xmlns="http://www.w3.org/2000/svg" xmlns:xlink="http://www.w3.org/1999/xlink" x="0px" y="0px"
	 viewBox="0 0 480 270" style="enable-background:new 0 0 480 270;" xml:space="preserve">
<style type="text/css">
	.st0{fill:#D8D8D8;}
	.st1{fill:#A3A3A3;}
</style>
<rect class="st0" width="480" height="270"/>
<g>
	<g>
		<rect x="218.7" y="150.4" class="st1" width="5.1" height="35.7"/>
	</g>
	<g>
		<rect x="256.8" y="87.9" class="st1" width="5.1" height="86.9"/>
	</g>
	<g>
		<path class="st1" d="M297.9,188.7c-0.2,0-0.4,0-0.6-0.1l-37.6-9.1l-37.6,9.1c-0.3,0.1-0.7,0.1-1,0l-39.5-6.7
			c-1.2-0.2-2.1-1.3-2.1-2.5V87.9c0-0.8,0.4-1.6,1-2c0.6-0.5,1.5-0.6,2.2-0.4l37.1,10.3l38.4-10.3c0.4-0.1,0.9-0.1,1.4,0l39,10.9
			c1.1,0.3,1.9,1.3,1.9,2.5v87.3c0,0.8-0.4,1.5-1,2C299.1,188.5,298.5,188.7,297.9,188.7z M184.6,177.2l36.8,6.3l37.7-9.1
			c0.4-0.1,0.8-0.1,1.2,0l35,8.5v-82.1l-36.5-10.2l-38.4,10.3c-0.4,0.1-0.9,0.1-1.4,0l-34.5-9.6V177.2z"/>
	</g>
</g>
</svg>
