<?xml version="1.0" encoding="utf-8"?>
<!-- Generator: Adobe Illustrator 19.1.0, SVG Export Plug-In . SVG Version: 6.00 Build 0)  -->
<svg version="1.1" id="Camada_1" xmlns="http://www.w3.org/2000/svg" xmlns:xlink="http://www.w3.org/1999/xlink" x="0px" y="0px"
	 viewBox="0 0 480 270" style="enable-background:new 0 0 480 270;" xml:space="preserve">
<style type="text/css">
	.st0{fill:#D8D8D8;}
	.st1{fill:#A3A3A3;}
</style>
<rect class="st0" width="480" height="270"/>
<g>
	<g>
		<path class="st1" d="M206.5,161.7h-10.8c-5.2,0-9.5-4.3-9.5-9.5v-32.3c0-5.2,4.3-9.5,9.5-9.5h10.8c5.2,0,9.5,4.3,9.5,9.5v32.3
			C216,157.5,211.7,161.7,206.5,161.7z M195.7,116c-2.2,0-3.9,1.8-3.9,3.9v32.3c0,2.2,1.8,3.9,3.9,3.9h10.8c2.2,0,3.9-1.8,3.9-3.9
			v-32.3c0-2.2-1.8-3.9-3.9-3.9H195.7z"/>
	</g>
	<g>
		<path class="st1" d="M252.2,184.8c-0.5,0-1-0.1-1.4-0.4L212,160.7c-0.8-0.5-1-1.4-1-2.4V113c0-0.9,0.2-1.8,1-2.3l38.9-25.6
			c0.9-0.6,1.9-0.6,2.8-0.1c0.9,0.5,1.4,1.4,1.4,2.5V182c0,1-0.5,1.9-1.4,2.4C253.2,184.7,252.7,184.8,252.2,184.8z M215,156.7
			l34,20.3V92.6l-34,22V156.7z"/>
	</g>
	<g>
		<path class="st1" d="M267.1,165.1c-1.5,0-2.8-1.2-2.8-2.8c0-1.5,1.2-2.8,2.8-2.8c11.8,0,21.4-9.6,21.4-21.4
			c0-11.8-9.6-21.4-21.4-21.4c-1.5,0-2.8-1.2-2.8-2.8c0-1.5,1.2-2.8,2.8-2.8c14.9,0,27,12.1,27,27C294.1,153,282,165.1,267.1,165.1z
			"/>
	</g>
</g>
</svg>
