<?xml version="1.0" encoding="utf-8"?>
<!-- Generator: Adobe Illustrator 19.1.0, SVG Export Plug-In . SVG Version: 6.00 Build 0)  -->
<svg version="1.1" id="Camada_1" xmlns="http://www.w3.org/2000/svg" xmlns:xlink="http://www.w3.org/1999/xlink" x="0px" y="0px"
	 viewBox="0 0 480 270" style="enable-background:new 0 0 480 270;" xml:space="preserve">
<style type="text/css">
	.st0{fill:#D8D8D8;}
	.st1{fill:#A3A3A3;}
</style>
<rect class="st0" width="480" height="270"/>
<g>
	<g>
		<path class="st1" d="M294.9,168c-1.8,0-3.3-1.5-3.3-3.3c0-37.4-30.4-67.8-67.8-67.8c-18.1,0-35.1,7.1-47.9,19.9
			c-1.3,1.3-3.4,1.3-4.7,0c-1.3-1.3-1.3-3.4,0-4.7c14.1-14.1,32.8-21.8,52.6-21.8c41.1,0,74.5,33.4,74.5,74.5
			C298.3,166.5,296.8,168,294.9,168z"/>
	</g>
	<g>
		<path class="st1" d="M174.4,180.7c-0.9,0-1.7-0.3-2.4-1c-1.3-1.3-1.3-3.4,0-4.7L225,122l26.8,26.8l52.1-52.1
			c1.3-1.3,3.4-1.3,4.7,0c1.3,1.3,1.3,3.4,0,4.7l-56.8,56.8L225,131.4l-48.2,48.2C176.1,180.3,175.2,180.7,174.4,180.7z"/>
	</g>
</g>
</svg>
