<?xml version="1.0" encoding="utf-8"?>
<!-- Generator: Adobe Illustrator 19.1.0, SVG Export Plug-In . SVG Version: 6.00 Build 0)  -->
<svg version="1.1" id="Camada_1" xmlns="http://www.w3.org/2000/svg" xmlns:xlink="http://www.w3.org/1999/xlink" x="0px" y="0px"
	 viewBox="0 0 480 270" style="enable-background:new 0 0 480 270;" xml:space="preserve">
<style type="text/css">
	.st0{fill:#D8D8D8;}
	.st1{fill:#A3A3A3;}
</style>
<rect y="0" class="st0" width="480" height="270"/>
<g>
	<g>
		<path class="st1" d="M265.3,188.6h-50.6v-11.3H189c-7.7,0-13.9-6.3-13.9-13.9V95.3c0-7.7,6.3-13.9,13.9-13.9H291
			c7.7,0,13.9,6.3,13.9,13.9l-0.1,68.1c0,7.7-6.2,13.9-13.9,13.9h-25.8V188.6z M219.9,183.4h40.2v-11.3h31c4.8,0,8.7-3.9,8.7-8.7
			l0.1-68.1c0-4.8-3.9-8.7-8.7-8.7H189c-4.8,0-8.7,3.9-8.7,8.7v68.1c0,4.8,3.9,8.7,8.7,8.7h31V183.4z"/>
	</g>
	<g>
		<polygon class="st1" points="262.7,129.3 223,152 223,106.6 		"/>
	</g>
	<g>
		<rect x="217.3" y="172.1" class="st1" width="45.4" height="12.3"/>
	</g>
</g>
</svg>
