<?xml version="1.0" encoding="utf-8"?>
<!-- Generator: Adobe Illustrator 19.1.0, SVG Export Plug-In . SVG Version: 6.00 Build 0)  -->
<svg version="1.1" id="Camada_1" xmlns="http://www.w3.org/2000/svg" xmlns:xlink="http://www.w3.org/1999/xlink" x="0px" y="0px"
	 viewBox="0 0 480 270" style="enable-background:new 0 0 480 270;" xml:space="preserve">
<style type="text/css">
	.st0{fill:#D8D8D8;}
	.st1{fill:#A3A3A3;}
</style>
<rect class="st0" width="480" height="270"/>
<g>
	<g>
		<path class="st1" d="M285.7,173.2h-91c-7.1,0-12.8-5.7-12.8-12.8V99.7c0-7.1,5.7-12.8,12.8-12.8h91c7.1,0,12.8,5.7,12.8,12.8
			l0,60.7C298.5,167.4,292.8,173.2,285.7,173.2z M194.7,92.2c-4.2,0-7.4,3.3-7.4,7.4v60.7c0,4.1,3.3,7.4,7.4,7.4h91
			c4.1,0,7.4-3.3,7.4-7.4l0-60.7c0-4.1-3.3-7.4-7.4-7.4H194.7z"/>
	</g>
	<g>
		<rect x="165" y="173" class="st1" width="150" height="10"/>
	</g>
</g>
</svg>
