<?xml version="1.0" encoding="utf-8"?>
<!-- Generator: Adobe Illustrator 19.1.0, SVG Export Plug-In . SVG Version: 6.00 Build 0)  -->
<svg version="1.1" id="Camada_1" xmlns="http://www.w3.org/2000/svg" xmlns:xlink="http://www.w3.org/1999/xlink" x="0px" y="0px"
	 viewBox="0 0 480 270" style="enable-background:new 0 0 480 270;" xml:space="preserve">
<style type="text/css">
	.st0{fill:#D8D8D8;}
	.st1{fill:#A3A3A3;}
</style>
<rect class="st0" width="480" height="270"/>
<g>
	<g>
		<path class="st1" d="M281.5,184.8h-83c-8,0-14.5-5.9-14.5-13.2V97.7c0-7.3,6.5-13.2,14.5-13.2h83c8,0,14.5,5.9,14.5,13.2v73.9
			C296,178.9,289.5,184.8,281.5,184.8z M198.5,89.8c-5.1,0-9.3,3.6-9.3,7.9v73.9c0,4.4,4.1,7.9,9.3,7.9h83c5.1,0,9.3-3.6,9.3-7.9
			V97.7c0-4.4-4.1-7.9-9.3-7.9H198.5z"/>
	</g>
	<g>
		<polygon class="st1" points="219.3,142.6 234.1,158.5 254.9,134.7 281.5,166.3 198.5,166.3 		"/>
	</g>
</g>
</svg>
