<?xml version="1.0" encoding="utf-8"?>
<!-- Generator: Adobe Illustrator 19.1.0, SVG Export Plug-In . SVG Version: 6.00 Build 0)  -->
<svg version="1.1" id="Camada_1" xmlns="http://www.w3.org/2000/svg" xmlns:xlink="http://www.w3.org/1999/xlink" x="0px" y="0px"
	 viewBox="0 0 480 270" style="enable-background:new 0 0 480 270;" xml:space="preserve">
<style type="text/css">
	.st0{fill:#D8D8D8;}
	.st1{fill:#A3A3A3;}
</style>
<rect class="st0" width="480" height="270"/>
<g>
	<g>
		<g>
			<g>
				<path class="st1" d="M220.2,134.5c0-3.7,2.5-6.2,5.9-6.2c3.5,0,5.8,2.6,5.8,6.2c0,3.6-2.3,6.2-5.9,6.2
					C222.6,140.7,220.2,138,220.2,134.5z"/>
				<path class="st1" d="M226.1,142.1c-4.2,0-7.2-3.2-7.2-7.6c0-4.4,3.1-7.6,7.3-7.6c4.2,0,7.2,3.2,7.2,7.6
					C233.4,139,230.4,142.1,226.1,142.1z M226.2,129.6c-2.7,0-4.6,2-4.6,4.9c0,2.9,1.8,4.8,4.5,4.8c2.8,0,4.6-1.9,4.6-4.8
					C230.6,131.6,228.8,129.6,226.2,129.6z"/>
			</g>
			<g>
				<path class="st1" d="M244.6,134.5c0-3.7,2.5-6.2,5.9-6.2s5.8,2.6,5.8,6.2c0,3.6-2.3,6.2-5.9,6.2
					C247,140.7,244.6,138,244.6,134.5z"/>
				<path class="st1" d="M250.4,142.1c-4.2,0-7.2-3.2-7.2-7.6c0-4.4,3.1-7.6,7.3-7.6c4.2,0,7.2,3.2,7.2,7.6
					C257.8,139,254.7,142.1,250.4,142.1z M250.5,129.6c-2.7,0-4.6,2-4.6,4.9c0,2.9,1.8,4.8,4.5,4.8c2.8,0,4.6-1.9,4.6-4.8
					C255,131.6,253.2,129.6,250.5,129.6z"/>
			</g>
			<g>
				<path class="st1" d="M268.9,134.5c0-3.7,2.5-6.2,5.9-6.2c3.5,0,5.8,2.6,5.8,6.2c0,3.6-2.3,6.2-5.9,6.2
					C271.3,140.7,268.9,138,268.9,134.5z"/>
				<path class="st1" d="M274.8,142.1c-4.2,0-7.2-3.2-7.2-7.6c0-4.4,3.1-7.6,7.3-7.6c4.2,0,7.2,3.2,7.2,7.6
					C282.1,139,279.1,142.1,274.8,142.1z M274.9,129.6c-2.7,0-4.6,2-4.6,4.9c0,2.9,1.8,4.8,4.5,4.8c2.8,0,4.6-1.9,4.6-4.8
					C279.3,131.6,277.5,129.6,274.9,129.6z"/>
			</g>
		</g>
	</g>
	<g>
		<g>
			<path class="st1" d="M292.6,184.4h-78.1c-4.8-0.2-8.4-2.2-11.1-5.8l-29.3-44.1l29.2-44c2.4-3.7,6.1-5.7,10.5-5.9l78.7,0
				c3.7,0,6.8,1.3,9.4,3.7l0,0c2.6,2.5,3.9,5.7,3.9,9.6V171c0,3.7-1.3,6.9-3.9,9.5C299.4,183.1,296.3,184.4,292.6,184.4z
				 M180.8,134.5l27.2,40.9c1.6,2.2,3.7,3.3,6.6,3.4l77.9,0c2.2,0,4-0.7,5.5-2.3c1.5-1.5,2.3-3.3,2.3-5.5V97.9
				c0-2.3-0.7-4.2-2.2-5.6c-1.5-1.5-3.3-2.2-5.6-2.2H214c-2.6,0.1-4.6,1.2-6,3.4L180.8,134.5z"/>
		</g>
	</g>
</g>
</svg>
