<?xml version="1.0" encoding="utf-8"?>
<!-- Generator: Adobe Illustrator 19.1.0, SVG Export Plug-In . SVG Version: 6.00 Build 0)  -->
<svg version="1.1" id="Camada_1" xmlns="http://www.w3.org/2000/svg" xmlns:xlink="http://www.w3.org/1999/xlink" x="0px" y="0px"
	 viewBox="0 0 480 270" style="enable-background:new 0 0 480 270;" xml:space="preserve">
<style type="text/css">
	.st0{fill:#D8D8D8;}
	.st1{fill:#A3A3A3;}
</style>
<rect y="1" class="st0" width="480" height="270"/>
<g>
	<path class="st1" d="M240.1,192.3c-30.7,0-55.6-25-55.6-55.6s25-55.6,55.6-55.6c30.7,0,55.6,25,55.6,55.6S270.8,192.3,240.1,192.3z
		 M240.1,86c-28,0-50.7,22.8-50.7,50.7c0,28,22.8,50.7,50.7,50.7s50.7-22.8,50.7-50.7C290.9,108.7,268.1,86,240.1,86z"/>
</g>
<g>
	<g>
		<rect x="189" y="117" class="st1" width="102" height="5"/>
	</g>
	<g>
		<rect x="189" y="151" class="st1" width="102" height="6"/>
	</g>
</g>
<g>
	<path class="st1" d="M240.6,188.8l-1.7-1.7c-0.8-0.8-20.4-20.4-20.4-51c0-30.7,19.6-49.2,20.5-49.9l1.7-1.6l1.7,1.6
		c0.8,0.7,19.5,18.7,19.5,49.9c0,31.1-18.7,50.2-19.4,51L240.6,188.8z M240.6,91.5c-4.6,5.1-17.2,21.3-17.2,44.6
		c0,23.3,12.5,40.1,17.2,45.6c4.5-5.4,16.3-21.9,16.3-45.6C256.9,112.4,245,96.6,240.6,91.5z"/>
</g>
</svg>
