<?xml version="1.0" encoding="utf-8"?>
<!-- Generator: Adobe Illustrator 16.0.0, SVG Export Plug-In . SVG Version: 6.00 Build 0)  -->
<!DOCTYPE svg PUBLIC "-//W3C//DTD SVG 1.1//EN" "http://www.w3.org/Graphics/SVG/1.1/DTD/svg11.dtd">
<svg version="1.1" xmlns="http://www.w3.org/2000/svg" xmlns:xlink="http://www.w3.org/1999/xlink" x="0px" y="0px"
	 width="283.688px" height="171.208px" viewBox="0 0 283.688 171.208" enable-background="new 0 0 283.688 171.208"
	 xml:space="preserve">
<g id="Cores" display="none">
</g>
<g id="Red_MouseOver">
</g>
<g id="Recurso_MouseOver">
</g>
<g id="Coleções_Estruturadas_Oberto">
</g>
<g id="Footer">
</g>
<g id="REQ_Conteudo">
</g>
<g id="REQ_Header">
</g>
<g id="CE_Conteudo">
</g>
<g id="CE_Header">
</g>
<g id="REA_Conteudo">
</g>
<g id="REA_Header">
</g>
<g id="Colaborativa">
</g>
<g id="banner">
</g>
<g id="banner_cópia" display="none">
</g>
<g id="Conheca">
	<g>
		<g opacity="0.3">
			<path fill="#FFFFFF" d="M132.61,154.183H15.863c-3.712,0-6.721-3.01-6.721-6.723c0-3.711,3.009-6.721,6.721-6.721H132.61
				c3.712,0,6.721,3.01,6.721,6.721C139.331,151.173,136.322,154.183,132.61,154.183z"/>
		</g>
		<g>
			<g>
				<path fill="#FFFFFF" d="M96.392,25.869H25.26c-4.495,0-8.139,3.301-8.139,7.371v105.168c0,4.072,3.644,7.373,8.139,7.373h71.132
					c4.496,0,8.14-3.301,8.14-7.373V33.24C104.532,29.169,100.888,25.869,96.392,25.869z"/>
			</g>
			<g>
				<rect x="17.121" y="36.769" fill="#E9516D" width="87.411" height="87.654"/>
				<path fill="#381112" d="M105.372,125.265H16.281V35.929h89.091V125.265z M17.961,123.583h85.73V37.609h-85.73V123.583z"/>
			</g>
			<g>
				<path fill="#381112" d="M60.796,141.171c-3.469,0-6.291-2.822-6.291-6.291s2.822-6.291,6.291-6.291s6.291,2.822,6.291,6.291
					S64.265,141.171,60.796,141.171z M60.796,130.269c-2.542,0-4.611,2.068-4.611,4.611c0,2.541,2.068,4.609,4.611,4.609
					s4.611-2.068,4.611-4.609C65.407,132.337,63.338,130.269,60.796,130.269z"/>
			</g>
			<g>
				<path fill="#381112" d="M71.47,32.998H45.003c-0.464,0-0.84-0.375-0.84-0.84s0.376-0.84,0.84-0.84H71.47
					c0.464,0,0.84,0.375,0.84,0.84S71.934,32.998,71.47,32.998z"/>
			</g>
			<g>
				<path fill="#381112" d="M76.645,33.007c-0.218,0-0.42-0.102-0.588-0.252c-0.151-0.168-0.252-0.387-0.252-0.605
					s0.101-0.42,0.236-0.588c0.335-0.318,0.89-0.318,1.209,0c0.151,0.15,0.235,0.369,0.235,0.588c0,0.236-0.084,0.453-0.235,0.605
					C77.082,32.906,76.863,33.007,76.645,33.007z"/>
			</g>
			<g>
				<path fill="#FFFFFF" d="M60.796,136.863L60.796,136.863c-1.091,0-1.983-0.893-1.983-1.982l0,0c0-1.09,0.892-1.982,1.983-1.982
					l0,0c1.09,0,1.983,0.893,1.983,1.982l0,0C62.779,135.97,61.886,136.863,60.796,136.863z"/>
			</g>
			<g opacity="0.5">
				<polygon fill="#E63358" points="106.484,124.423 19.073,124.423 19.073,36.769 				"/>
			</g>
			<g>
				<g>
					<path fill="#381112" d="M96.393,147.039H25.26c-5.181,0-9.397-3.871-9.397-8.629V33.24c0-4.758,4.216-8.629,9.397-8.629h71.132
						c5.181,0,9.397,3.871,9.397,8.629v105.17C105.79,143.167,101.574,147.039,96.393,147.039z M25.26,27.126
						c-3.794,0-6.881,2.742-6.881,6.113v105.17c0,3.371,3.087,6.113,6.881,6.113h71.132c3.794,0,6.881-2.742,6.881-6.113V33.24
						c0-3.371-3.086-6.113-6.881-6.113H25.26z"/>
				</g>
			</g>
			<g>
				<g>
					<g>
						<path fill="#FFFFFF" d="M71.436,90.253c-0.454,0-0.874-0.186-1.193-0.504c-0.319-0.303-0.487-0.74-0.487-1.176
							c0-0.455,0.168-0.893,0.487-1.193c0.604-0.623,1.748-0.639,2.369,0c0.319,0.318,0.504,0.738,0.504,1.193
							c0,0.436-0.185,0.855-0.487,1.176C72.293,90.068,71.874,90.253,71.436,90.253z"/>
					</g>
					<g>
						<path fill="#FFFFFF" d="M65.068,85.498L65.068,85.498L65.068,85.498c-0.773-0.521-0.975-1.563-0.47-2.336l0,0
							c0.521-0.771,1.562-0.975,2.335-0.453l0,0c0.773,0.504,0.975,1.545,0.471,2.32l0,0c-0.336,0.486-0.857,0.754-1.412,0.754l0,0
							C65.672,85.783,65.353,85.683,65.068,85.498z M24.792,85.029c-0.521-0.775-0.32-1.816,0.454-2.336l0,0
							c0.772-0.521,1.814-0.303,2.335,0.469l0,0c0.521,0.758,0.303,1.799-0.454,2.318l0,0c-0.302,0.203-0.621,0.287-0.941,0.287l0,0
							C25.649,85.767,25.112,85.515,24.792,85.029z M59.17,82.339c-0.874-0.354-1.277-1.344-0.924-2.201l0,0
							c0.353-0.857,1.344-1.26,2.201-0.908l0,0c0.857,0.354,1.26,1.344,0.907,2.201l0,0c-0.269,0.639-0.89,1.025-1.545,1.025l0,0
							C59.59,82.457,59.372,82.423,59.17,82.339z M30.825,81.416c-0.353-0.857,0.05-1.832,0.907-2.201l0,0
							c0.856-0.354,1.849,0.066,2.201,0.924l0,0c0.353,0.857-0.051,1.832-0.907,2.184l0,0c-0.218,0.084-0.438,0.135-0.638,0.135l0,0
							C31.715,82.457,31.094,82.07,30.825,81.416z M52.751,80.39c-0.907-0.168-1.495-1.059-1.31-1.967l0,0
							c0.168-0.906,1.058-1.512,1.965-1.326l0,0c0.908,0.184,1.496,1.074,1.328,1.982l0,0c-0.168,0.789-0.874,1.344-1.646,1.344l0,0
							C52.971,80.423,52.87,80.423,52.751,80.39z M37.445,79.062c-0.168-0.906,0.42-1.797,1.327-1.982l0,0
							c0.908-0.168,1.798,0.42,1.983,1.328l0,0c0.167,0.906-0.42,1.797-1.328,1.982l0,0c-0.118,0.018-0.219,0.033-0.319,0.033l0,0
							C38.318,80.423,37.613,79.869,37.445,79.062z M46.082,79.734c-0.925,0-1.664-0.756-1.664-1.68l0,0
							c0-0.924,0.739-1.68,1.68-1.68l0,0c0.925,0,1.68,0.756,1.68,1.68l0,0c0,0.924-0.755,1.68-1.68,1.68l0,0
							C46.098,79.734,46.098,79.734,46.082,79.734z"/>
					</g>
					<g>
						<path fill="#FFFFFF" d="M20.743,90.253c-0.438,0-0.874-0.186-1.193-0.504c-0.303-0.303-0.487-0.74-0.487-1.176
							c0-0.455,0.185-0.875,0.487-1.193c0.638-0.639,1.764-0.623,2.386,0c0.303,0.318,0.487,0.738,0.487,1.193
							c0,0.436-0.185,0.873-0.487,1.176C21.617,90.068,21.18,90.253,20.743,90.253z"/>
					</g>
				</g>
			</g>
			<g>
				<path fill="#FFFFFF" stroke="#381112" stroke-miterlimit="10" d="M69.437,91.998h-18.72v-4.053l8.623-9.066
					c2.125-2.42,3.188-4.342,3.188-5.768c0-1.152-0.252-2.033-0.755-2.633c-0.504-0.604-1.234-0.904-2.192-0.904
					c-0.946,0-1.714,0.402-2.303,1.207c-0.59,0.805-0.885,1.809-0.885,3.014h-6.228c0-1.646,0.411-3.168,1.235-4.561
					c0.823-1.395,1.965-2.484,3.427-3.27c1.461-0.787,3.095-1.182,4.901-1.182c2.898,0,5.131,0.67,6.697,2.01
					c1.566,1.338,2.349,3.26,2.349,5.766c0,1.057-0.196,2.086-0.589,3.086c-0.394,1.004-1.004,2.053-1.834,3.15
					c-0.829,1.102-2.165,2.572-4.007,4.414l-3.464,3.998h10.557V91.998z"/>
			</g>
		</g>
		<g>
			<path fill="#381112" d="M16.103,137.921H1.26c-0.696,0-1.26-0.564-1.26-1.26c0-0.697,0.564-1.262,1.26-1.262h14.842
				c0.696,0,1.26,0.564,1.26,1.262C17.363,137.357,16.798,137.921,16.103,137.921z"/>
		</g>
		<g opacity="0.3">
			<path fill="#FFFFFF" d="M253.857,154.183H139.827c-3.712,0-6.721-3.01-6.721-6.723c0-3.711,3.009-6.721,6.721-6.721h114.031
				c3.712,0,6.721,3.01,6.721,6.721C260.579,151.173,257.569,154.183,253.857,154.183z"/>
		</g>
		<g>
			<g>
				<path fill="#FFFFFF" d="M243.766,25.869h-71.132c-4.495,0-8.139,3.301-8.139,7.371v105.168c0,4.072,3.644,7.373,8.139,7.373
					h71.132c4.495,0,8.14-3.301,8.14-7.373V33.24C251.906,29.169,248.261,25.869,243.766,25.869z"/>
			</g>
			<g>
				<rect x="164.495" y="36.769" fill="#E9516D" width="87.411" height="87.654"/>
				<path fill="#381112" d="M252.745,125.265h-89.09V35.929h89.09V125.265z M165.335,123.583h85.729V37.609h-85.729V123.583z"/>
			</g>
			<g>
				<path fill="#381112" d="M208.169,141.171c-3.469,0-6.291-2.822-6.291-6.291s2.822-6.291,6.291-6.291s6.291,2.822,6.291,6.291
					S211.638,141.171,208.169,141.171z M208.169,130.269c-2.542,0-4.611,2.068-4.611,4.611c0,2.541,2.069,4.609,4.611,4.609
					c2.542,0,4.611-2.068,4.611-4.609C212.78,132.337,210.711,130.269,208.169,130.269z"/>
			</g>
			<g>
				<path fill="#381112" d="M218.843,32.998h-26.466c-0.464,0-0.84-0.375-0.84-0.84s0.375-0.84,0.84-0.84h26.466
					c0.464,0,0.84,0.375,0.84,0.84S219.308,32.998,218.843,32.998z"/>
			</g>
			<g>
				<path fill="#381112" d="M224.019,32.99c-0.218,0-0.437-0.084-0.587-0.234c-0.167-0.168-0.253-0.369-0.253-0.605
					c0-0.201,0.085-0.42,0.236-0.588c0.318-0.318,0.891-0.318,1.209,0c0.151,0.168,0.234,0.369,0.234,0.588
					s-0.083,0.438-0.234,0.605C224.457,32.906,224.238,32.99,224.019,32.99z"/>
			</g>
			<g>
				<path fill="#FFFFFF" d="M208.17,136.863L208.17,136.863c-1.091,0-1.983-0.893-1.983-1.982l0,0c0-1.09,0.892-1.982,1.983-1.982
					l0,0c1.09,0,1.983,0.893,1.983,1.982l0,0C210.153,135.97,209.26,136.863,208.17,136.863z"/>
			</g>
			<g opacity="0.5">
				<polygon fill="#E63358" points="253.858,124.423 166.447,124.423 166.447,36.769 				"/>
			</g>
			<g>
				<g>
					<path fill="#381112" d="M243.767,147.039h-71.132c-5.182,0-9.397-3.871-9.397-8.629V33.24c0-4.758,4.215-8.629,9.397-8.629
						h71.132c5.181,0,9.396,3.871,9.396,8.629v105.17C253.163,143.167,248.948,147.039,243.767,147.039z M172.634,27.126
						c-3.794,0-6.881,2.742-6.881,6.113v105.17c0,3.371,3.087,6.113,6.881,6.113h71.132c3.794,0,6.881-2.742,6.881-6.113V33.24
						c0-3.371-3.086-6.113-6.881-6.113H172.634z"/>
				</g>
			</g>
			<g>
				<path fill="#FFFFFF" stroke="#381112" stroke-miterlimit="10" d="M203.765,75.986h2.931c2.32,0,3.482-1.135,3.482-3.408
					c0-0.885-0.277-1.605-0.829-2.166c-0.553-0.559-1.334-0.838-2.342-0.838c-0.822,0-1.537,0.238-2.146,0.719
					c-0.607,0.479-0.912,1.074-0.912,1.789h-6.209c0-1.414,0.394-2.674,1.18-3.777c0.786-1.107,1.875-1.971,3.27-2.59
					c1.395-0.621,2.927-0.932,4.598-0.932c2.985,0,5.331,0.682,7.038,2.045c1.708,1.363,2.562,3.238,2.562,5.621
					c0,1.154-0.353,2.244-1.06,3.27c-0.706,1.025-1.734,1.859-3.086,2.498c1.426,0.516,2.543,1.297,3.354,2.348
					s1.216,2.35,1.216,3.896c0,2.396-0.92,4.313-2.763,5.75s-4.263,2.156-7.259,2.156c-1.757,0-3.388-0.334-4.893-1.004
					c-1.504-0.67-2.643-1.598-3.417-2.783c-0.773-1.186-1.16-2.533-1.16-4.045h6.247c0,0.824,0.332,1.535,0.995,2.139
					c0.663,0.602,1.48,0.902,2.449,0.902c1.095,0,1.966-0.305,2.618-0.912c0.651-0.607,0.976-1.385,0.976-2.33
					c0-1.354-0.338-2.311-1.014-2.875c-0.674-0.564-1.608-0.848-2.799-0.848h-3.022V75.986z"/>
			</g>
			<g>
				<g>
					<g>
						<path fill="#FFFFFF" d="M198.294,93.681c-0.453,0-0.891-0.186-1.193-0.504c-0.32-0.303-0.487-0.74-0.487-1.176
							c0-0.455,0.167-0.875,0.487-1.193c0.622-0.623,1.748-0.623,2.37,0c0.318,0.318,0.504,0.756,0.504,1.193
							c0,0.436-0.186,0.873-0.504,1.191C199.167,93.496,198.731,93.681,198.294,93.681z"/>
					</g>
					<g>
						<path fill="#FFFFFF" d="M221.953,102.501c0-0.924,0.756-1.68,1.68-1.68l0,0c0.924,0,1.68,0.756,1.68,1.68l0,0
							c0,0.924-0.756,1.682-1.68,1.682l0,0C222.691,104.183,221.953,103.425,221.953,102.501z M228.976,102.15
							c-0.184-0.908,0.404-1.799,1.328-1.982l0,0c0.907-0.17,1.782,0.42,1.966,1.326l0,0c0.185,0.908-0.42,1.799-1.328,1.982l0,0
							c-0.1,0.018-0.218,0.018-0.318,0.018l0,0C229.832,103.494,229.126,102.939,228.976,102.15z M216.306,103.46
							c-0.907-0.186-1.495-1.059-1.327-1.967l0,0c0.186-0.906,1.076-1.512,1.984-1.326l0,0c0.907,0.184,1.495,1.057,1.327,1.965l0,0
							c-0.169,0.807-0.875,1.361-1.647,1.361l0,0C216.525,103.494,216.425,103.476,216.306,103.46z M235.798,100.417
							c-0.371-0.855,0.049-1.83,0.907-2.184l0,0c0.856-0.352,1.831,0.051,2.184,0.908l0,0c0.353,0.855-0.051,1.83-0.907,2.201l0,0
							c-0.202,0.084-0.42,0.117-0.638,0.117l0,0C236.688,101.46,236.067,101.074,235.798,100.417z M209.267,101.326L209.267,101.326
							c-0.858-0.354-1.26-1.328-0.907-2.184l0,0c0.353-0.857,1.344-1.277,2.2-0.908l0,0c0.856,0.354,1.26,1.328,0.907,2.184l0,0
							c-0.269,0.656-0.891,1.043-1.562,1.043l0,0C209.704,101.46,209.485,101.41,209.267,101.326z M242.132,97.41
							c-0.503-0.771-0.302-1.814,0.471-2.334l0,0c0.773-0.521,1.814-0.303,2.335,0.453l0,0c0.503,0.773,0.304,1.814-0.469,2.336l0,0
							c-0.287,0.201-0.605,0.285-0.925,0.285l0,0C242.989,98.15,242.468,97.898,242.132,97.41z M202.781,97.865
							c-0.756-0.521-0.975-1.563-0.453-2.336l0,0c0.504-0.773,1.563-0.975,2.319-0.453l0,0c0,0,0,0,0.016,0l0,0
							c0.757,0.504,0.975,1.545,0.453,2.318l0,0c-0.318,0.488-0.856,0.756-1.393,0.756l0,0
							C203.403,98.15,203.066,98.05,202.781,97.865z"/>
					</g>
					<g>
						<path fill="#FFFFFF" d="M248.971,93.681c-0.437,0-0.875-0.186-1.177-0.488c-0.32-0.318-0.503-0.756-0.503-1.191
							c0-0.438,0.184-0.875,0.487-1.193c0.638-0.623,1.764-0.623,2.386,0c0.318,0.318,0.487,0.738,0.487,1.193
							c0,0.436-0.169,0.873-0.487,1.191C249.844,93.496,249.424,93.681,248.971,93.681z"/>
					</g>
				</g>
			</g>
		</g>
		<g>
			<path fill="#381112" d="M268.005,137.921h-14.842c-0.696,0-1.26-0.564-1.26-1.26c0-0.697,0.564-1.262,1.26-1.262h14.842
				c0.695,0,1.26,0.564,1.26,1.262C269.265,137.357,268.701,137.921,268.005,137.921z"/>
		</g>
		<g>
			<path fill="#381112" d="M282.428,137.921h-7.421c-0.696,0-1.26-0.564-1.26-1.26c0-0.697,0.564-1.262,1.26-1.262h7.421
				c0.696,0,1.26,0.564,1.26,1.262C283.688,137.357,283.124,137.921,282.428,137.921z"/>
		</g>
		<g opacity="0.4">
			<path fill="#FFFFFF" d="M192.563,171.209H73.378c-4.64,0-8.401-3.762-8.401-8.402c0-4.639,3.762-8.401,8.401-8.401h119.185
				c4.641,0,8.401,3.763,8.401,8.401C200.964,167.448,197.204,171.209,192.563,171.209z"/>
		</g>
		<g>
			<path fill="#FFFFFF" d="M180.009,1.681h-95.02c-6.005,0-10.873,4.408-10.873,9.848v140.486c0,5.44,4.868,9.851,10.873,9.851
				h95.02c6.005,0,10.873-4.41,10.873-9.851V11.529C190.882,6.089,186.014,1.681,180.009,1.681z"/>
		</g>
		<g>
			<rect x="74.117" y="16.242" fill="#E9516D" width="116.766" height="117.094"/>
			<path fill="#381112" d="M191.723,134.175H73.276V15.402h118.447V134.175z M74.957,132.496h115.086V17.083H74.957V132.496z"/>
		</g>
		<g>
			<path fill="#381112" d="M73.378,155.845H37.313c-0.696,0-1.26-0.564-1.26-1.262c0-0.695,0.564-1.26,1.26-1.26h36.065
				c0.696,0,1.26,0.564,1.26,1.26C74.638,155.281,74.074,155.845,73.378,155.845z"/>
		</g>
		<g>
			<path fill="#381112" d="M132.458,155.425c-4.478,0-8.121-3.645-8.121-8.123c0-4.477,3.643-8.121,8.121-8.121
				s8.122,3.645,8.122,8.121C140.58,151.781,136.936,155.425,132.458,155.425z M132.458,140.861c-3.551,0-6.44,2.891-6.44,6.441
				c0,3.553,2.889,6.441,6.44,6.441c3.552,0,6.441-2.889,6.441-6.441C138.899,143.751,136.01,140.861,132.458,140.861z"/>
		</g>
		<g>
			<path fill="#381112" d="M146.717,10.921h-35.355c-0.464,0-0.84-0.375-0.84-0.84c0-0.463,0.375-0.84,0.84-0.84h35.355
				c0.464,0,0.84,0.377,0.84,0.84C147.557,10.546,147.182,10.921,146.717,10.921z"/>
		</g>
		<g>
			<path fill="#381112" d="M153.633,10.929c-0.218,0-0.436-0.102-0.588-0.252c-0.167-0.168-0.252-0.387-0.252-0.588
				c0-0.219,0.084-0.438,0.235-0.59c0.336-0.336,0.89-0.318,1.209-0.016c0.152,0.168,0.235,0.387,0.235,0.605
				c0,0.201-0.083,0.42-0.235,0.588C154.071,10.828,153.852,10.929,153.633,10.929z"/>
		</g>
		<g>
			<path fill="#FFFFFF" d="M132.458,149.951L132.458,149.951c-1.457,0-2.648-1.191-2.648-2.648l0,0c0-1.457,1.192-2.648,2.648-2.648
				l0,0c1.457,0,2.649,1.191,2.649,2.648l0,0C135.107,148.759,133.916,149.951,132.458,149.951z"/>
		</g>
		<g opacity="0.5">
			<polygon fill="#E63358" points="193.49,133.335 76.725,133.335 76.725,16.242 			"/>
		</g>
		<g>
			<g>
				<g>
					<path fill="#FFFFFF" d="M76.477,95.361c-0.436,0-0.874-0.186-1.176-0.504c-0.319-0.303-0.504-0.74-0.504-1.176
						c0-0.453,0.185-0.873,0.504-1.193c0.622-0.621,1.731-0.621,2.369,0c0.319,0.32,0.487,0.756,0.487,1.193
						c0,0.436-0.168,0.873-0.487,1.193C77.351,95.175,76.93,95.361,76.477,95.361z"/>
				</g>
				<g>
					<path fill="#FFFFFF" d="M100.135,104.183c0.017-0.926,0.755-1.682,1.697-1.682l0,0l0,0l0,0c0.924,0,1.68,0.756,1.664,1.682l0,0
						c0,0.924-0.739,1.68-1.68,1.68l0,0C100.89,105.863,100.135,105.107,100.135,104.183z M107.159,103.83
						c-0.168-0.908,0.42-1.799,1.326-1.982l0,0c0.908-0.168,1.799,0.42,1.983,1.326l0,0c0.168,0.908-0.42,1.799-1.328,1.984l0,0
						c-0.117,0.016-0.218,0.033-0.319,0.033l0,0C108.031,105.191,107.326,104.636,107.159,103.83z M94.506,105.14L94.506,105.14
						c-0.908-0.186-1.496-1.059-1.328-1.982l0,0c0.185-0.908,1.076-1.496,1.983-1.311l0,0c0.908,0.184,1.496,1.059,1.311,1.965l0,0
						c-0.151,0.807-0.857,1.361-1.647,1.361l0,0C94.724,105.173,94.607,105.158,94.506,105.14z M113.979,102.117
						c-0.353-0.875,0.051-1.85,0.908-2.201l0,0c0.857-0.354,1.848,0.049,2.201,0.906l0,0c0.353,0.857-0.05,1.85-0.908,2.201l0,0
						c-0.218,0.084-0.437,0.117-0.638,0.117l0,0C114.871,103.14,114.249,102.753,113.979,102.117z M87.465,103.005
						c-0.857-0.352-1.26-1.326-0.907-2.184l0,0c0.353-0.857,1.328-1.277,2.184-0.906l0,0c0,0,0,0,0-0.018l0,0
						c0.857,0.369,1.277,1.344,0.925,2.201l0,0c-0.269,0.654-0.908,1.041-1.563,1.041l0,0
						C87.902,103.14,87.684,103.091,87.465,103.005z M120.332,99.091c-0.521-0.773-0.303-1.814,0.47-2.336l0,0
						c0.757-0.52,1.799-0.32,2.319,0.455l0,0c0.521,0.771,0.319,1.813-0.454,2.334l0,0c-0.286,0.201-0.622,0.285-0.941,0.285l0,0
						C121.188,99.83,120.65,99.562,120.332,99.091z M80.98,99.544c-0.772-0.521-0.975-1.563-0.454-2.334l0,0
						c0.504-0.775,1.546-0.975,2.318-0.471l0,0c0,0,0,0,0,0.016l0,0c0.773,0.504,0.975,1.547,0.47,2.318l0,0
						c-0.335,0.488-0.856,0.756-1.411,0.756l0,0C81.585,99.83,81.266,99.73,80.98,99.544z"/>
				</g>
				<g>
					<path fill="#FFFFFF" d="M127.169,95.361c-0.436,0-0.874-0.186-1.192-0.504c-0.303-0.303-0.488-0.74-0.488-1.176
						c0-0.453,0.185-0.873,0.488-1.193c0.622-0.621,1.747-0.621,2.386,0c0.303,0.32,0.487,0.74,0.487,1.193
						c0,0.436-0.185,0.873-0.487,1.193C128.043,95.175,127.607,95.361,127.169,95.361z"/>
				</g>
			</g>
			<g>
				<g>
					<path fill="#FFFFFF" d="M187.625,85.128c-0.454,0-0.891-0.168-1.192-0.488c-0.32-0.318-0.506-0.738-0.506-1.191
						c0-0.438,0.186-0.875,0.506-1.176c0.62-0.639,1.747-0.639,2.368,0c0.32,0.301,0.505,0.738,0.505,1.176
						c0,0.453-0.186,0.873-0.505,1.191C188.499,84.96,188.062,85.128,187.625,85.128z"/>
				</g>
				<g>
					<path fill="#FFFFFF" d="M181.257,80.375c0,0,0,0,0,0.016l0,0c-0.773-0.521-0.975-1.563-0.47-2.336l0,0
						c0.521-0.773,1.562-0.975,2.335-0.471l0,0c0.773,0.521,0.975,1.564,0.455,2.336l0,0c-0.32,0.488-0.857,0.74-1.395,0.74l0,0
						C181.862,80.66,181.542,80.574,181.257,80.375z M140.982,79.902c-0.521-0.754-0.319-1.797,0.454-2.318l0,0
						c0.772-0.52,1.814-0.318,2.335,0.455l0,0c0.521,0.771,0.302,1.814-0.47,2.336l0,0c-0.286,0.184-0.605,0.285-0.924,0.285l0,0
						C141.838,80.66,141.301,80.39,140.982,79.902z M175.359,77.214c-0.874-0.354-1.277-1.328-0.924-2.184l0,0
						c0.354-0.857,1.344-1.277,2.201-0.908l0,0c0.857,0.354,1.26,1.328,0.907,2.184l0,0c-0.269,0.656-0.89,1.043-1.562,1.043l0,0
						C175.779,77.349,175.561,77.314,175.359,77.214z M147.014,76.306c-0.353-0.855,0.051-1.848,0.907-2.199l0,0
						c0.856-0.354,1.831,0.066,2.201,0.906l0,0c0.353,0.857-0.051,1.848-0.907,2.201l0,0c0,0,0,0-0.017,0l0,0
						c-0.201,0.084-0.42,0.135-0.639,0.135l0,0C147.904,77.349,147.283,76.962,147.014,76.306z M153.633,73.955
						c-0.168-0.908,0.42-1.797,1.328-1.965l0,0c0.908-0.186,1.798,0.402,1.983,1.309l0,0c0.168,0.908-0.42,1.799-1.327,1.984l0,0
						c-0.118,0.016-0.218,0.033-0.336,0.033l0,0C154.507,75.316,153.802,74.761,153.633,73.955z M168.94,75.283
						c-0.907-0.186-1.495-1.076-1.31-1.984l0,0c0.168-0.906,1.058-1.494,1.965-1.309l0,0c0.908,0.168,1.496,1.057,1.328,1.965l0,0
						c-0.168,0.807-0.856,1.361-1.646,1.361l0,0C169.16,75.316,169.059,75.298,168.94,75.283z M160.606,72.947
						c0-0.924,0.74-1.682,1.664-1.682l0,0c0.941,0,1.697,0.758,1.697,1.682l0,0c0,0.924-0.755,1.68-1.68,1.68l0,0
						C161.346,74.626,160.606,73.871,160.606,72.947z"/>
				</g>
				<g>
					<path fill="#FFFFFF" d="M136.932,85.128c-0.437,0-0.874-0.168-1.193-0.488c-0.303-0.301-0.488-0.738-0.488-1.191
						c0-0.438,0.185-0.875,0.488-1.193c0.622-0.605,1.748-0.621,2.386,0.018c0.303,0.301,0.487,0.738,0.487,1.176
						c0,0.436-0.185,0.873-0.487,1.191C137.806,84.96,137.369,85.128,136.932,85.128z"/>
				</g>
			</g>
		</g>
		<g>
			<path fill="#FFFFFF" stroke="#381112" stroke-linecap="round" stroke-miterlimit="10" d="M137.381,90.019h-8.319V63.537
				l-8.171,2.387v-6.301l15.728-5.439h0.763V90.019z"/>
		</g>
		<g>
			<g>
				<path fill="#381112" d="M180.01,163.545H84.989c-6.921,0-12.553-5.172-12.553-11.528V11.529C72.436,5.171,78.068,0,84.989,0
					h95.021c6.921,0,12.553,5.172,12.553,11.529v140.488C192.563,158.374,186.931,163.545,180.01,163.545z M84.989,3.361
					c-5.068,0-9.192,3.664-9.192,8.168v140.488c0,4.502,4.124,8.167,9.192,8.167h95.021c5.069,0,9.192-3.665,9.192-8.167V11.529
					c0-4.504-4.123-8.168-9.192-8.168H84.989z"/>
			</g>
		</g>
	</g>
</g>
<g id="Img_Topo">
</g>
<g id="Camada_17">
</g>
<g id="Header">
</g>
<g id="Imagem_Todo_Topo">
</g>
<g id="Pesquisa">
</g>
<g id="Guides" display="none">
</g>
</svg>
