<?xml version="1.0" encoding="utf-8"?>
<!-- Generator: Adobe Illustrator 16.0.0, SVG Export Plug-In . SVG Version: 6.00 Build 0)  -->
<!DOCTYPE svg PUBLIC "-//W3C//DTD SVG 1.1//EN" "http://www.w3.org/Graphics/SVG/1.1/DTD/svg11.dtd">
<svg version="1.1" xmlns="http://www.w3.org/2000/svg" xmlns:xlink="http://www.w3.org/1999/xlink" x="0px" y="0px"
	 width="65.192px" height="66.582px" viewBox="0 0 65.192 66.582" enable-background="new 0 0 65.192 66.582" xml:space="preserve">
<g id="Cores" display="none">
</g>
<g id="Camada_23">
</g>
<g id="Red_MouseOver">
</g>
<g id="Recurso_MouseOver">
</g>
<g id="Coleções_Estruturadas_Oberto">
</g>
<g id="Footer">
</g>
<g id="REQ_Conteudo">
</g>
<g id="REQ_Header">
</g>
<g id="CE_Conteudo">
</g>
<g id="CE_Header">
</g>
<g id="REA_Conteudo">
</g>
<g id="REA_Header">
</g>
<g id="Colaborativa">
</g>
<g id="Camada_22">
</g>
<g id="Conheca">
	<path fill="none" stroke="#FFFFFF" stroke-width="2" stroke-miterlimit="10" d="M1.646,22.5c-0.027,0.351,0.135,0.606,0.324,0.876
		c0.135,0.203,0.296,0.432,0.323,0.66c0.041,0.377,0.243,0.472,0.553,0.539c0.351,0.081,0.633,0.27,0.728,0.646
		c0.094,0.351,0.283,0.445,0.633,0.31c0.687-0.256,1.375-0.539,2.062-0.809c-0.013,0.081-0.04,0.203-0.054,0.324
		c-0.054,0.485-0.135,0.971-0.121,1.441c0.013,0.499,0.323,0.809,0.782,0.809c0.889,0,1.765-0.013,2.654-0.04
		c0.431-0.014,0.809-0.176,1.105-0.513c0.041-0.04,0.094-0.107,0.134-0.094c0.525,0.094,0.809-0.269,1.132-0.58
		c0.364-0.35,0.782-0.592,1.32-0.579c0.337,0.013,0.687-0.095,1.078-0.148c0,0,0.054,0.067,0.094,0.148
		c0.189,0.296,0.27,0.566,0.041,0.902c-0.107,0.175-0.054,0.458-0.067,0.701c-0.014,0.175,0.026,0.376-0.027,0.539
		c-0.081,0.256-0.095,0.485,0.013,0.742c0.297,0.646,0.755,1.158,1.294,1.603c0.297,0.242,0.62,0.323,0.997,0.256
		c0.121-0.014,0.27,0.054,0.391,0.121c0.161,0.094,0.283,0.283,0.444,0.324c0.243,0.067,0.405,0.175,0.553,0.35
		c0.202,0.243,0.458,0.405,0.782,0.351c0.243-0.041,0.35,0.027,0.417,0.269c0.148,0.512,0.458,0.661,0.984,0.539
		c0.148-0.041,0.35,0,0.499,0.068c0.337,0.148,0.647,0.35,0.97,0.499c0.216,0.094,0.324,0.229,0.351,0.444
		c0.04,0.31,0.067,0.607,0.067,0.917c-0.013,0.418,0.04,0.849-0.323,1.186c-0.054,0.041-0.081,0.149-0.081,0.216
		c0.041,0.35,0.107,0.687,0.391,0.93c0.471,0.404,1.024,0.646,1.644,0.701c0.27,0.027,0.552,0,0.835,0.014
		c0.364,0.013,0.485,0.188,0.391,0.525c-0.027,0.081-0.054,0.175-0.095,0.256c-0.35,0.714-0.134,1.186,0.606,1.415
		c0.148,0.054,0.364,0.215,0.364,0.323c0.027,0.565,0.27,1.172-0.175,1.698c-0.054,0.054-0.108,0.121-0.122,0.202
		c-0.027,0.148-0.08,0.337-0.027,0.458c0.068,0.148,0.068,0.229-0.026,0.351c-0.203,0.269-0.337,0.539-0.364,0.889
		c-0.041,0.714-0.135,1.429-0.189,2.143c-0.027,0.35-0.041,0.713-0.027,1.064c0.013,0.296,0.175,0.552,0.472,0.62
		c0.404,0.081,0.822,0.135,1.226,0.135c1.092,0,1.9,0.97,1.711,2.048c-0.054,0.283-0.041,0.593-0.027,0.889
		c0.014,0.377,0.135,0.458,0.513,0.391c0.175-0.027,0.35-0.081,0.525-0.094c0.432-0.027,0.742,0.242,0.688,0.674
		c-0.054,0.485-0.148,0.983-0.31,1.441c-0.175,0.512-0.216,0.499,0.229,0.809c0.445,0.31,0.62,0.741,0.552,1.267
		c-0.041,0.351-0.135,0.688-0.148,1.037c-0.013,0.539-0.377,0.822-0.782,0.957c-1.091,0.337-1.926,1.024-2.735,1.766
		c-0.499,0.458-0.93,0.97-1.388,1.468c-0.256,0.27-0.27,0.445-0.067,0.769c0.054,0.094,0.107,0.188,0.175,0.269
		c0.324,0.417,0.741,0.769,0.606,1.401c-0.054,0.256,0.135,0.377,0.391,0.296c0.107-0.027,0.202-0.081,0.296-0.148
		c0.215-0.148,0.39-0.067,0.525,0.095c0.525,0.66,1.118,1.226,1.779,1.725c0.296,0.215,0.525,0.499,0.579,0.862
		c0.041,0.31,0.229,0.337,0.471,0.31c0.229-0.027,0.445-0.094,0.688-0.148c0.148,0.31,0.377,0.35,0.593,0.081
		c0.094-0.122,0.202-0.256,0.229-0.405c0.148-0.605,0.431-1.104,0.889-1.536c0.445-0.417,0.835-0.889,1.267-1.36
		c0.027,0.027,0.081,0.054,0.121,0.094c0.337,0.351,0.728,0.323,0.984-0.081c0.148-0.242,0.296-0.485,0.417-0.754
		c0.216-0.458,0.526-0.795,0.93-1.092c0.283-0.216,0.526-0.485,0.728-0.768c0.323-0.471,0.431-1.051,0.499-1.604
		c0.067-0.485,0.094-0.983,0.148-1.468c0.013-0.189,0.054-0.378,0.081-0.553c0.094-0.606,0.606-1.078,0.526-1.751
		c0.134,0.067,0.229,0.135,0.337,0.189c0.188,0.08,0.337,0.053,0.431-0.162c0.202-0.485,0.633-0.714,1.092-0.849
		c0.364-0.122,0.674-0.284,0.97-0.525c0.337-0.283,0.688-0.553,1.186-0.526c0.727,0.027,1.401-0.148,1.914-0.714
		c0.444-0.486,0.916-0.566,1.482-0.243c0.363,0.202,0.768,0.229,1.186,0.175c0.809-0.121,1.509-0.472,2.169-0.93
		c0.512-0.364,0.971-0.781,1.24-1.375c0.175-0.391,0.445-0.701,0.863-0.862c0.135-0.053,0.27-0.107,0.364-0.202
		c0.525-0.633,1.05-1.28,1.563-1.94c0.256-0.337,0.134-0.741,0.161-1.119c0.014-0.35,0.054-0.728,0.364-0.93
		c0.539-0.364,0.809-0.889,1.024-1.455c0.094-0.229,0.094-0.498,0.135-0.741c-0.014-0.04,0.081-0.067,0.094-0.108
		c0.054-0.162,0.094-0.337,0.121-0.512c0.095-0.484,0.189-0.957,0.27-1.441c0.094-0.58,0.175-1.159,0.256-1.738
		c0.081-0.54,0.107-1.079,0.216-1.618c0.067-0.376,0.283-0.713,0.673-0.835c1.267-0.431,2.142-1.252,2.519-2.533
		c0.189-0.62,0.553-0.917,1.16-1.024c0.687-0.122,1.32-0.364,1.724-0.984c0.108-0.175,0.175-0.377,0.31-0.525
		c0.351-0.377,0.728-0.728,1.091-1.091c0.863-0.849,1.186-1.846,0.89-3.032c-0.108-0.405-0.162-0.809-0.229-1.227
		c-0.054-0.336-0.027-0.7-0.122-1.023c-0.215-0.714-0.62-1.28-1.441-1.415c-0.229-0.04-0.445-0.108-0.674-0.134
		c-0.499-0.081-0.917-0.297-1.227-0.674c-0.539-0.688-1.064-1.401-1.563-2.116c-0.324-0.458-0.566-0.957-1.227-1.011
		c-0.081,0-0.175-0.121-0.229-0.216c-0.27-0.471-0.674-0.713-1.199-0.768c-0.283-0.027-0.593-0.054-0.849,0.027
		c-0.742,0.243-1.415,0.027-2.075-0.229c-0.27-0.094-0.539-0.27-0.728-0.472c-0.243-0.256-0.539-0.377-0.862-0.418
		c-0.62-0.094-1.2,0.081-1.765,0.297c-0.283,0.108-0.579,0.215-0.903,0.323c0.148-0.579,0.283-1.104,0.431-1.63
		c0.067-0.256,0.041-0.391-0.229-0.499c-0.404-0.175-0.782-0.404-1.159-0.633c-0.189-0.121-0.337-0.296-0.539-0.417
		c-0.714-0.431-1.495-0.674-2.318-0.835c-0.916-0.175-1.778-0.04-2.533,0.552c-0.377,0.297-0.755,0.58-1.118,0.849
		c-0.121-0.283-0.296-0.525-0.512-0.713c0.135-0.014,0.283-0.054,0.418-0.108c0.269-0.108,0.539-0.229,0.768-0.391
		c0.405-0.31,0.809-0.633,1.172-0.997c0.216-0.215,0.162-0.39-0.121-0.525c-0.781-0.377-1.617-0.525-2.479-0.525
		c-0.404,0-0.741,0.162-1.051,0.351c-0.324,0.202-0.606,0.444-0.943,0.633c-0.269,0.148-0.552,0.297-0.957,0.202
		c0.122-0.256,0.189-0.512,0.337-0.714c0.606-0.835,1.361-1.496,2.264-1.994c0.256-0.135,0.472-0.31,0.418-0.647
		c-0.041-0.243,0.054-0.404,0.242-0.539c0.149-0.108,0.283-0.23,0.472-0.391c-0.175-0.094-0.283-0.175-0.418-0.215
		c-0.256-0.094-0.552-0.135-0.794-0.256c-0.162-0.081-0.324-0.243-0.364-0.405c-0.081-0.31-0.054-0.647-0.135-0.97
		c-0.162-0.742-0.364-1.482-0.539-2.156c-0.337-0.229-0.553-0.094-0.741,0.121c-0.189,0.203-0.404,0.378-0.58,0.594
		c-0.081,0.107-0.148,0.269-0.121,0.404c0.054,0.404,0.054,0.472-0.324,0.566c-0.336,0.094-0.539,0.296-0.646,0.593
		c-0.081,0.216-0.243,0.323-0.458,0.377c-0.606,0.148-1.199,0.107-1.806,0.027c-0.458-0.067-0.875-0.175-1.145-0.593
		c-0.054-0.094-0.189-0.161-0.283-0.175c-0.391-0.067-0.782-0.108-1.172-0.175c-0.283-0.054-0.445,0.04-0.607,0.283
		c-0.283,0.458-0.957,0.97-1.697,0.673c-0.472-0.188-0.97-0.121-1.456,0.041c-0.458,0.148-0.929,0.256-1.401,0.337
		c-0.337,0.067-0.674,0.013-0.944-0.243c-0.579-0.539-0.916-1.212-1.01-2.008c-0.081-0.66,0.175-1.226,0.512-1.751
		c0.364-0.552,0.35-0.62-0.148-1.01c-0.242-0.189-0.337-0.404-0.269-0.701c0.027-0.121,0.108-0.243,0.081-0.337
		c-0.027-0.148-0.095-0.337-0.202-0.391c-0.31-0.162-0.552-0.067-0.795,0.27c-0.337,0.445-0.633,0.943-1.24,1.038
		c-0.431,0.067-0.875,0.107-1.32,0.148c-0.108,0.013-0.216-0.027-0.324-0.014c-0.337,0.014-0.512,0.243-0.674,0.499
		c-0.283,0.472-0.404,0.485-0.808,0.108c-0.041-0.027-0.068-0.081-0.108-0.094c-0.364-0.189-0.715-0.377-1.079-0.525
		c-0.094-0.04-0.296,0.054-0.364,0.148c-0.242,0.337-0.242,0.728-0.148,1.119c0.135,0.512,0.378,0.902,0.903,1.145
		c0.458,0.216,0.431,0.768,0,1.011c-0.135,0.081-0.296,0.121-0.431,0.202c-0.917,0.525-1.832,1.051-2.749,1.59
		c-0.189,0.121-0.364,0.121-0.553,0.04c-0.35-0.162-0.687-0.175-1.011,0.068c-0.04,0.041-0.161,0.041-0.215,0
		c-0.418-0.283-0.755-0.62-0.85-1.159c-0.081-0.472-0.31-0.822-0.822-0.943c-0.35-0.081-0.66,0-0.983,0.108
		c-0.458,0.148-0.903,0.161-1.388,0.094c-0.337-0.054-0.688-0.041-1.024,0C8.68,5.955,8.531,6.144,8.504,6.386
		c-0.027,0.256,0.135,0.405,0.35,0.499C9.002,6.952,9.164,6.992,9.272,7.1C9.38,7.194,9.474,7.356,9.474,7.477
		c0,0.094-0.148,0.229-0.256,0.27c-0.162,0.054-0.35,0.067-0.526,0.067C8.06,7.841,7.763,8.232,8.019,8.812
		C8.181,9.175,8.41,9.525,8.666,9.835c0.472,0.606,0.526,1.173,0.095,1.792c-0.243,0.35-0.472,0.714-0.337,1.186
		c0.027,0.095-0.014,0.216-0.068,0.31c-0.188,0.405-0.323,0.822-0.31,1.293c0,0.108-0.04,0.229-0.081,0.337
		c-0.068,0.243-0.188,0.486-0.203,0.728c-0.04,0.593-0.296,0.809-0.849,0.634c-0.525-0.175-0.983-0.095-1.455,0.162
		c-0.162,0.081-0.364,0.094-0.552,0.107c-0.216,0-0.431-0.04-0.661-0.067c-0.054,0.296-0.256,0.417-0.525,0.458
		c-0.067,0.014-0.121,0.054-0.175,0.094c-0.863,0.593-1.173,1.509-1.401,2.465c-0.067,0.257-0.081,0.499-0.391,0.647
		c-0.202,0.094-0.377,0.31-0.512,0.512c-0.337,0.499-0.324,0.862,0.054,1.333C1.538,21.949,1.673,22.19,1.646,22.5L1.646,22.5z
		 M1.646,22.5"/>
</g>
<g id="Header">
</g>
<g id="Banner_Sem_Imagem" display="none">
</g>
<g id="Banner" display="none">
</g>
<g id="Full_Banner">
</g>
<g id="Camada_21">
</g>
<g id="Camada_20">
</g>
<g id="Pesquisa">
</g>
<g id="Guides" display="none">
</g>
</svg>
