<?xml version="1.0" encoding="utf-8"?>
<!-- Generator: Adobe Illustrator 16.0.0, SVG Export Plug-In . SVG Version: 6.00 Build 0)  -->
<!DOCTYPE svg PUBLIC "-//W3C//DTD SVG 1.1//EN" "http://www.w3.org/Graphics/SVG/1.1/DTD/svg11.dtd">
<svg version="1.1" xmlns="http://www.w3.org/2000/svg" xmlns:xlink="http://www.w3.org/1999/xlink" x="0px" y="0px"
	 width="283.688px" height="171.208px" viewBox="0 0 283.688 171.208" enable-background="new 0 0 283.688 171.208"
	 xml:space="preserve">
<g id="Cores" display="none">
</g>
<g id="Red_MouseOver">
</g>
<g id="Recurso_MouseOver">
</g>
<g id="Coleções_Estruturadas_Oberto">
</g>
<g id="Footer">
</g>
<g id="REQ_Conteudo">
</g>
<g id="REQ_Header">
</g>
<g id="CE_Conteudo">
</g>
<g id="CE_Header">
</g>
<g id="REA_Conteudo">
</g>
<g id="REA_Header">
</g>
<g id="Colaborativa">
</g>
<g id="banner">
</g>
<g id="banner_cópia" display="none">
</g>
<g id="Conheca">
	<g>
		<g>
			<g>
				<path fill="#381112" d="M214.625,49.593l-0.464-0.352c-1.341-1.017-3.438-1.577-5.903-1.577c-1.578,0-3.705,0.493-5.172,1.199
					l-0.364,0.083c0.05,0.01-0.097,0.058-0.292,0.058c-0.758,0-1.422-0.664-1.422-1.422V30.089l0.332-0.252
					c1.631-1.237,4.088-1.919,6.918-1.919c2.551,0,4.798,0.554,6.411,1.568c1.613-1.015,3.86-1.568,6.411-1.568
					c1.544,0,3.042,0.215,4.332,0.621l0.014,0.004c1.04,0.347,1.856,0.757,2.569,1.29l0.336,0.253v17.438
					c0,0.758-0.666,1.423-1.423,1.423c-0.197,0-0.396-0.012-0.667-0.147c-1.395-0.746-3.172-1.135-5.161-1.135
					c-1.87,0-4.544,0.726-5.964,1.619L214.625,49.593z"/>
			</g>
		</g>
		<path fill="#FFFFFF" d="M208.258,45.984c2.572,0,4.836,0.563,6.454,1.596c1.725-0.915,4.394-1.596,6.368-1.596
			c2.099,0,4.014,0.394,5.571,1.14V30.945c-0.489-0.314-1.044-0.569-1.751-0.805c-1.127-0.354-2.447-0.542-3.82-0.542
			c-2.466,0-4.563,0.561-5.903,1.578l-0.508,0.385l-0.508-0.385c-1.34-1.018-3.437-1.578-5.903-1.578
			c-2.27,0-4.228,0.476-5.57,1.345v16.255C204.353,46.465,206.542,45.984,208.258,45.984z"/>
		<g>
			<path fill="#381112" d="M214.668,152.749H158.38c-0.696,0-1.26-0.564-1.26-1.26c0-0.696,0.564-1.261,1.26-1.261h56.288
				c0.696,0,1.26,0.564,1.26,1.261C215.929,152.184,215.364,152.749,214.668,152.749z"/>
		</g>
		<g opacity="0.4">
			<path fill="#FFFFFF" d="M184.068,171.802H58.283c-4.64,0-8.401-3.762-8.401-8.401S53.643,155,58.283,155h125.786
				c4.639,0,8.401,3.762,8.401,8.401S188.708,171.802,184.068,171.802z"/>
		</g>
		<g>
			<path fill="#FFFFFF" d="M168.686,3.217h-95.02c-6.005,0-10.873,4.409-10.873,9.849v140.487c0,5.438,4.868,9.848,10.873,9.848
				h95.02c6.005,0,10.873-4.409,10.873-9.848V13.066C179.559,7.626,174.69,3.217,168.686,3.217z"/>
		</g>
		<g>
			<rect x="62.792" y="17.78" fill="#F19124" width="116.766" height="117.092"/>
			<path fill="#381112" d="M180.398,135.711H61.953V16.939h118.446V135.711z M63.633,134.031h115.085V18.62H63.633V134.031z"/>
		</g>
		<g>
			<path fill="#381112" d="M237.365,152.749h-14.072c-0.696,0-1.26-0.564-1.26-1.26c0-0.696,0.564-1.261,1.26-1.261h14.072
				c0.696,0,1.26,0.564,1.26,1.261C238.625,152.184,238.061,152.749,237.365,152.749z"/>
		</g>
		<g>
			<path fill="#381112" d="M44.589,151.069H22.397c-0.696,0-1.26-0.564-1.26-1.261c0-0.695,0.564-1.26,1.26-1.26h22.192
				c0.696,0,1.26,0.564,1.26,1.26C45.85,150.504,45.285,151.069,44.589,151.069z"/>
		</g>
		<g>
			<path fill="#381112" d="M62.792,141.139H47.95c-0.696,0-1.26-0.564-1.26-1.261c0-0.695,0.564-1.26,1.26-1.26h14.842
				c0.696,0,1.26,0.564,1.26,1.26C64.053,140.575,63.488,141.139,62.792,141.139z"/>
		</g>
		<g>
			<path fill="#381112" d="M121.134,156.96c-4.478,0-8.121-3.644-8.121-8.121s3.643-8.121,8.121-8.121s8.122,3.644,8.122,8.121
				S125.612,156.96,121.134,156.96z M121.134,142.399c-3.552,0-6.44,2.889-6.44,6.44s2.889,6.441,6.44,6.441s6.441-2.89,6.441-6.441
				S124.686,142.399,121.134,142.399z"/>
		</g>
		<g>
			<path fill="#381112" d="M135.394,12.458h-35.355c-0.464,0-0.84-0.376-0.84-0.84c0-0.465,0.376-0.84,0.84-0.84h35.355
				c0.464,0,0.84,0.375,0.84,0.84C136.233,12.083,135.858,12.458,135.394,12.458z"/>
		</g>
		<g>
			<path fill="#381112" d="M142.316,12.453c-0.218,0-0.438-0.084-0.588-0.235c-0.168-0.168-0.252-0.387-0.252-0.604
				s0.084-0.438,0.236-0.588c0.319-0.319,0.874-0.319,1.192,0c0.151,0.15,0.252,0.37,0.252,0.588s-0.101,0.437-0.252,0.604
				C142.753,12.369,142.535,12.453,142.316,12.453z"/>
		</g>
		<g>
			<path fill="#FFFFFF" d="M121.135,151.488L121.135,151.488c-1.457,0-2.648-1.191-2.648-2.648l0,0c0-1.457,1.191-2.648,2.648-2.648
				l0,0c1.457,0,2.648,1.191,2.648,2.648l0,0C123.783,150.296,122.592,151.488,121.135,151.488z"/>
		</g>
		<g>
			<path fill="#381112" d="M203.142,9.475c-2.775,0-5.034-2.259-5.034-5.035c0-2.775,2.259-5.034,5.034-5.034
				c2.776,0,5.035,2.259,5.035,5.034C208.177,7.216,205.918,9.475,203.142,9.475z M203.142,1.085c-1.85,0-3.354,1.505-3.354,3.354
				s1.504,3.354,3.354,3.354c1.85,0,3.354-1.505,3.354-3.354S204.992,1.085,203.142,1.085z"/>
		</g>
		<g>
			<g>
				<path fill="#381112" d="M243.469,127.122c-0.464,0-0.84-0.376-0.84-0.84v-8.234c0-0.464,0.376-0.84,0.84-0.84
					s0.84,0.376,0.84,0.84v8.234C244.309,126.746,243.934,127.122,243.469,127.122z"/>
			</g>
			<g>
				<path fill="#381112" d="M247.585,123.004h-8.233c-0.464,0-0.84-0.375-0.84-0.84s0.375-0.84,0.84-0.84h8.233
					c0.464,0,0.84,0.375,0.84,0.84S248.05,123.004,247.585,123.004z"/>
			</g>
		</g>
		<g>
			<g>
				<path fill="#381112" d="M219.658,136.101h-10.845v-2.291h-4.888c-1.727,0-3.132-1.405-3.132-3.132v-13.747
					c0-1.728,1.405-3.132,3.132-3.132h20.621c1.727,0,3.132,1.404,3.132,3.132l-0.012,13.748c0,1.726-1.399,3.131-3.12,3.131h-4.887
					V136.101z"/>
				<path fill="#FFFFFF" d="M210.493,134.421h7.485v-2.292h6.567c0.794,0,1.44-0.651,1.44-1.451l0.011-13.748
					c0-0.799-0.651-1.45-1.451-1.45h-20.621c-0.814,0-1.452,0.637-1.452,1.451v13.747c0,0.8,0.652,1.451,1.452,1.451h6.568V134.421z
					"/>
			</g>
			<g>
				<polygon fill="#381112" points="218.817,123.804 210.798,128.387 210.798,119.222 				"/>
			</g>
			<g>
				<rect x="209.652" y="132.138" fill="#381112" width="9.165" height="3.123"/>
			</g>
		</g>
		<g>
			<path fill="#381112" d="M203.514,85.745c-2.776,0-5.034-2.259-5.034-5.035c0-2.775,2.258-5.034,5.034-5.034
				c2.776,0,5.035,2.259,5.035,5.034C208.549,83.486,206.291,85.745,203.514,85.745z M203.514,77.356
				c-1.849,0-3.354,1.505-3.354,3.354c0,1.851,1.505,3.354,3.354,3.354c1.85,0,3.354-1.504,3.354-3.354
				C206.869,78.861,205.364,77.356,203.514,77.356z"/>
		</g>
		<g>
			<path fill="#381112" d="M251.466,58.286h-12.142l6.07-10.515L251.466,58.286z M242.234,56.605h6.32l-3.16-5.474L242.234,56.605z"
				/>
		</g>
		<g>
			<g>
				<path fill="#381112" d="M259.129,100.47h-18.072c-1.887,0-3.422-1.406-3.422-3.136V81.256c0-1.73,1.535-3.138,3.422-3.138
					h18.072c1.887,0,3.422,1.407,3.422,3.138v16.078C262.552,99.064,261.017,100.47,259.129,100.47z"/>
			</g>
			<path fill="#FFFFFF" d="M241.057,79.799c-0.944,0-1.742,0.667-1.742,1.457v16.078c0,0.789,0.797,1.456,1.742,1.456h18.072
				c0.944,0,1.742-0.667,1.742-1.456V81.256c0-0.79-0.797-1.457-1.742-1.457H241.057z"/>
			<g>
				<polygon fill="#381112" points="245.575,91.018 248.802,94.474 253.321,89.295 259.13,96.186 241.057,96.186 				"/>
			</g>
		</g>
		<polygon fill="#EF7E25" points="179.559,134.872 62.792,134.872 62.792,17.78 		"/>
		<g>
			<g>
				<path fill="#FFFFFF" d="M147.856,52.679c-6.788-6.787-15.811-10.524-25.409-10.524s-18.621,3.737-25.409,10.524
					c-6.787,6.787-10.524,15.811-10.524,25.408c0,9.599,3.737,18.621,10.524,25.409c6.788,6.786,15.811,10.524,25.409,10.524
					s18.621-3.738,25.409-10.524c6.787-6.788,10.524-15.811,10.524-25.409C158.38,68.49,154.643,59.466,147.856,52.679
					L147.856,52.679z M122.448,111.651c-18.507,0-33.563-15.056-33.563-33.563c0-18.507,15.057-33.563,33.563-33.563
					s33.563,15.057,33.563,33.563C156.011,96.595,140.955,111.651,122.448,111.651L122.448,111.651z M122.448,111.651"/>
			</g>
		</g>
		<g>
			<rect x="213.829" y="30.506" fill="#381112" width="1.68" height="18.066"/>
		</g>
		<g>
			<g>
				<path fill="#381112" d="M168.686,165.081H73.665c-6.921,0-12.553-5.171-12.553-11.527V13.066
					c0-6.357,5.631-11.529,12.553-11.529h95.021c6.921,0,12.552,5.172,12.552,11.529v140.487
					C181.238,159.91,175.607,165.081,168.686,165.081z M73.665,4.897c-5.068,0-9.192,3.665-9.192,8.169v140.487
					c0,4.503,4.124,8.167,9.192,8.167h95.021c5.068,0,9.192-3.664,9.192-8.167V13.066c0-4.504-4.124-8.169-9.192-8.169H73.665z"/>
			</g>
		</g>
	</g>
</g>
<g id="Img_Topo">
</g>
<g id="Camada_17">
</g>
<g id="Header">
</g>
<g id="Imagem_Todo_Topo">
</g>
<g id="Pesquisa">
</g>
<g id="Guides" display="none">
</g>
</svg>
