<?xml version="1.0" encoding="utf-8"?>
<!-- Generator: Adobe Illustrator 16.0.0, SVG Export Plug-In . SVG Version: 6.00 Build 0)  -->
<!DOCTYPE svg PUBLIC "-//W3C//DTD SVG 1.1//EN" "http://www.w3.org/Graphics/SVG/1.1/DTD/svg11.dtd">
<svg version="1.1" xmlns="http://www.w3.org/2000/svg" xmlns:xlink="http://www.w3.org/1999/xlink" x="0px" y="0px"
	 width="283.688px" height="171.208px" viewBox="0 0 283.688 171.208" enable-background="new 0 0 283.688 171.208"
	 xml:space="preserve">
<g id="Cores" display="none">
</g>
<g id="Red_MouseOver">
</g>
<g id="Recurso_MouseOver">
</g>
<g id="Coleções_Estruturadas_Oberto">
</g>
<g id="Footer">
</g>
<g id="REQ_Conteudo">
</g>
<g id="REQ_Header">
</g>
<g id="CE_Conteudo">
</g>
<g id="CE_Header">
</g>
<g id="REA_Conteudo">
</g>
<g id="REA_Header">
</g>
<g id="Colaborativa">
</g>
<g id="banner">
</g>
<g id="banner_cópia" display="none">
</g>
<g id="Conheca">
	<g>
		<g>
			<path fill="#381112" d="M214.668,152.75H158.38c-0.695,0-1.26-0.564-1.26-1.262c0-0.695,0.565-1.26,1.26-1.26h56.289
				c0.696,0,1.26,0.564,1.26,1.26C215.929,152.185,215.364,152.75,214.668,152.75z"/>
		</g>
		<g opacity="0.3">
			<path fill="#DE83B4" d="M181.239,171.802H61.113c-4.64,0-8.401-3.762-8.401-8.4c0-4.641,3.761-8.402,8.401-8.402h120.126
				c4.641,0,8.401,3.762,8.401,8.402C189.64,168.041,185.879,171.802,181.239,171.802z"/>
		</g>
		<g>
			<path fill="#FFFFFF" d="M168.686,3.218H73.666c-6.005,0-10.873,4.408-10.873,9.848v140.486c0,5.439,4.868,9.85,10.873,9.85
				h95.021c6.005,0,10.873-4.41,10.873-9.85V13.066C179.559,7.626,174.691,3.218,168.686,3.218z"/>
		</g>
		<g>
			<rect x="62.793" y="17.781" fill="#A6358A" width="116.766" height="117.092"/>
			<path fill="#381112" d="M180.399,135.712H61.953V16.941h118.446V135.712z M63.633,134.033h115.085V18.621H63.633V134.033z"/>
		</g>
		<g>
			<path fill="#381112" d="M237.367,152.75h-14.072c-0.696,0-1.26-0.564-1.26-1.262c0-0.695,0.564-1.26,1.26-1.26h14.072
				c0.695,0,1.26,0.564,1.26,1.26C238.626,152.185,238.062,152.75,237.367,152.75z"/>
		</g>
		<g>
			<path fill="#381112" d="M44.591,151.068H22.396c-0.696,0-1.26-0.564-1.26-1.26s0.564-1.26,1.26-1.26h22.194
				c0.696,0,1.26,0.564,1.26,1.26S45.287,151.068,44.591,151.068z"/>
		</g>
		<g>
			<path fill="#381112" d="M62.793,141.138H47.952c-0.696,0-1.26-0.564-1.26-1.26s0.564-1.26,1.26-1.26h14.841
				c0.696,0,1.26,0.564,1.26,1.26S63.489,141.138,62.793,141.138z"/>
		</g>
		<g>
			<path fill="#381112" d="M121.136,156.96c-4.478,0-8.123-3.643-8.123-8.121c0-4.477,3.645-8.121,8.123-8.121
				s8.121,3.645,8.121,8.121C129.256,153.318,125.614,156.96,121.136,156.96z M121.136,142.398c-3.553,0-6.442,2.891-6.442,6.441
				c0,3.553,2.889,6.441,6.442,6.441c3.551,0,6.44-2.889,6.44-6.441C127.576,145.289,124.687,142.398,121.136,142.398z"/>
		</g>
		<g>
			<path fill="#381112" d="M135.393,12.458h-35.354c-0.464,0-0.84-0.375-0.84-0.84s0.376-0.84,0.84-0.84h35.354
				c0.465,0,0.84,0.375,0.84,0.84S135.858,12.458,135.393,12.458z"/>
		</g>
		<g>
			<path fill="#381112" d="M142.319,12.466c-0.235,0-0.453-0.102-0.604-0.252c-0.152-0.17-0.236-0.369-0.236-0.59
				c0-0.234,0.084-0.436,0.236-0.604c0.318-0.303,0.856-0.32,1.175,0c0.169,0.168,0.269,0.369,0.269,0.604
				c0,0.221-0.1,0.42-0.251,0.59C142.739,12.365,142.538,12.466,142.319,12.466z"/>
		</g>
		<g>
			<path fill="#FFFFFF" d="M121.135,151.488L121.135,151.488c-1.457,0-2.649-1.191-2.649-2.648l0,0c0-1.457,1.192-2.648,2.649-2.648
				l0,0c1.457,0,2.648,1.191,2.648,2.648l0,0C123.784,150.296,122.592,151.488,121.135,151.488z"/>
		</g>
		<g>
			<path fill="#381112" d="M203.143,9.474c-2.776,0-5.036-2.258-5.036-5.033c0-2.777,2.26-5.035,5.036-5.035
				s5.034,2.258,5.034,5.035C208.177,7.216,205.919,9.474,203.143,9.474z M203.143,1.085c-1.851,0-3.355,1.506-3.355,3.355
				s1.504,3.354,3.355,3.354c1.849,0,3.354-1.504,3.354-3.354S204.992,1.085,203.143,1.085z"/>
		</g>
		<g>
			<path fill="#381112" d="M245.976,58.285c-2.776,0-5.034-2.258-5.034-5.033s2.258-5.035,5.034-5.035s5.034,2.26,5.034,5.035
				S248.752,58.285,245.976,58.285z M245.976,49.896c-1.849,0-3.354,1.506-3.354,3.355s1.505,3.354,3.354,3.354
				s3.354-1.504,3.354-3.354S247.825,49.896,245.976,49.896z"/>
		</g>
		<g>
			<path fill="#381112" d="M209.212,85.548h-12.141l6.071-10.516L209.212,85.548z M199.983,83.867h6.319l-3.159-5.473
				L199.983,83.867z"/>
		</g>
		<g>
			<g>
				<path fill="#381112" d="M243.469,127.123c-0.464,0-0.84-0.375-0.84-0.84v-8.234c0-0.465,0.376-0.84,0.84-0.84
					s0.84,0.375,0.84,0.84v8.234C244.309,126.748,243.933,127.123,243.469,127.123z"/>
			</g>
			<g>
				<path fill="#381112" d="M247.586,123.005h-8.234c-0.464,0-0.84-0.375-0.84-0.84s0.376-0.84,0.84-0.84h8.234
					c0.464,0,0.84,0.375,0.84,0.84S248.05,123.005,247.586,123.005z"/>
			</g>
		</g>
		<g opacity="0.5">
			<polygon fill="#941B80" points="179.559,134.873 62.793,134.873 62.793,17.781 			"/>
		</g>
		<g>
			<g>
				<path fill="#381112" d="M168.686,165.082H73.666c-6.921,0-12.553-5.172-12.553-11.527V13.066
					c0-6.357,5.631-11.529,12.553-11.529h95.021c6.921,0,12.553,5.172,12.553,11.529v140.488
					C181.239,159.91,175.607,165.082,168.686,165.082z M73.666,4.898c-5.069,0-9.192,3.664-9.192,8.168v140.488
					c0,4.502,4.124,8.166,9.192,8.166h95.021c5.069,0,9.192-3.664,9.192-8.166V13.066c0-4.504-4.124-8.168-9.192-8.168H73.666z"/>
			</g>
		</g>
		<g>
			<g>
				<path fill="#FFFFFF" d="M130.529,18.603c0.548,0.549,0.823,1.258,0.823,2.125v48.801l-10.216-4.389l-10.216,4.389V20.728
					c0-0.822,0.274-1.52,0.823-2.092c0.548-0.57,1.234-0.857,2.057-0.857h14.673C129.294,17.779,129.98,18.054,130.529,18.603z"/>
				<path fill="#381112" d="M132.192,70.804l-11.056-4.75l-11.058,4.75V20.728c0-1.041,0.356-1.941,1.057-2.674
					c0.71-0.74,1.606-1.113,2.663-1.113h14.674c1.05,0,1.941,0.359,2.648,1.066c0.71,0.709,1.071,1.625,1.071,2.721V70.804z
					 M113.798,18.621c-0.597,0-1.059,0.189-1.451,0.598c-0.396,0.414-0.589,0.908-0.589,1.51v47.525l9.377-4.027l9.376,4.027V20.728
					c0-0.643-0.189-1.143-0.576-1.529l-0.001-0.002c-0.387-0.389-0.866-0.576-1.462-0.576H113.798z"/>
			</g>
		</g>
		<g>
			<line fill="#FFFFFF" x1="121.135" y1="50.857" x2="121.135" y2="40.076"/>
			<path fill="#381112" d="M121.136,51.697c-0.464,0-0.84-0.375-0.84-0.84V40.076c0-0.465,0.376-0.84,0.84-0.84
				s0.84,0.375,0.84,0.84v10.781C121.976,51.322,121.6,51.697,121.136,51.697z"/>
		</g>
		<g>
			<path fill="#FFFFFF" d="M217.452,33.841v-5.896h-6.433v5.896l3.216,3.217L217.452,33.841z M209.411,35.449h-5.896v6.434h5.896
				l3.216-3.217L209.411,35.449z M211.019,43.49v5.896h6.433V43.49l-3.216-3.215L211.019,43.49z M219.06,35.449l-3.216,3.217
				l3.216,3.217h5.896v-6.434H219.06z"/>
		</g>
		<g>
			<g>
				<path fill="#381112" d="M219.658,135.998h-10.845v-2.291h-4.888c-1.727,0-3.131-1.404-3.131-3.131v-13.748
					c0-1.727,1.404-3.131,3.131-3.131h20.621c1.727,0,3.132,1.404,3.132,3.131l-0.012,13.748c0,1.727-1.399,3.131-3.12,3.131h-4.887
					V135.998z"/>
				<path fill="#FFFFFF" d="M210.493,134.318h7.485v-2.291h6.567c0.794,0,1.44-0.652,1.44-1.451l0.012-13.748
					c0-0.799-0.652-1.451-1.452-1.451h-20.621c-0.814,0-1.452,0.637-1.452,1.451v13.748c0,0.799,0.652,1.451,1.452,1.451h6.568
					V134.318z"/>
			</g>
			<g>
				<polygon fill="#381112" points="218.818,123.703 210.798,128.285 210.798,119.119 				"/>
			</g>
			<g>
				<rect x="209.653" y="132.035" fill="#381112" width="9.165" height="3.123"/>
			</g>
		</g>
		<g>
			<g>
				<path fill="#381112" d="M259.13,100.367h-18.072c-1.887,0-3.422-1.406-3.422-3.135V81.154c0-1.73,1.535-3.139,3.422-3.139
					h18.072c1.887,0,3.422,1.408,3.422,3.139v16.078C262.552,98.96,261.017,100.367,259.13,100.367z"/>
			</g>
			<path fill="#FFFFFF" d="M241.058,79.697c-0.944,0-1.742,0.666-1.742,1.457v16.078c0,0.789,0.797,1.455,1.742,1.455h18.072
				c0.944,0,1.742-0.666,1.742-1.455V81.154c0-0.791-0.798-1.457-1.742-1.457H241.058z"/>
			<g>
				<polygon fill="#381112" points="245.576,90.916 248.803,94.371 253.321,89.193 259.13,96.083 241.057,96.083 				"/>
			</g>
		</g>
	</g>
</g>
<g id="Img_Topo">
</g>
<g id="Camada_17">
</g>
<g id="Header">
</g>
<g id="Imagem_Todo_Topo">
</g>
<g id="Pesquisa">
</g>
<g id="Guides" display="none">
</g>
</svg>
